<mxfile host="65bd71144e">
    <diagram id="BRb0pFB7m13HwBYcIA04" name="ページ1">
        <mxGraphModel dx="466" dy="449" grid="1" gridSize="10" guides="1" tooltips="1" connect="1" arrows="1" fold="1" page="1" pageScale="1" pageWidth="827" pageHeight="1169" math="0" shadow="0">
            <root>
                <mxCell id="0"/>
                <mxCell id="1" parent="0"/>
                <mxCell id="5" value="向いている仕事は何だろう？&lt;span style=&quot;white-space: pre;&quot;&gt;&#9;&lt;/span&gt;&lt;br&gt;&lt;br&gt;&lt;br&gt;&lt;br&gt;&lt;u&gt;URL&lt;/u&gt;" style="rounded=0;whiteSpace=wrap;html=1;" parent="1" vertex="1">
                    <mxGeometry x="80" y="80" width="200" height="160" as="geometry"/>
                </mxCell>
                <mxCell id="8" value="MBTI" style="rounded=0;whiteSpace=wrap;html=1;" parent="1" vertex="1">
                    <mxGeometry x="150" y="150" width="50" height="20" as="geometry"/>
                </mxCell>
                <mxCell id="14" value="" style="rounded=0;whiteSpace=wrap;html=1;" parent="1" vertex="1">
                    <mxGeometry x="80" y="360" width="210" height="240" as="geometry"/>
                </mxCell>
                <mxCell id="16" value="確認" style="rounded=0;whiteSpace=wrap;html=1;" parent="1" vertex="1">
                    <mxGeometry x="210" y="150" width="45" height="20" as="geometry"/>
                </mxCell>
                <mxCell id="19" value="ENTJ" style="rounded=1;whiteSpace=wrap;html=1;" parent="1" vertex="1">
                    <mxGeometry x="190" y="400" width="40" height="40" as="geometry"/>
                </mxCell>
                <mxCell id="20" value="INTP" style="rounded=1;whiteSpace=wrap;html=1;" parent="1" vertex="1">
                    <mxGeometry x="140" y="400" width="40" height="40" as="geometry"/>
                </mxCell>
                <mxCell id="21" value="INTJ" style="rounded=1;whiteSpace=wrap;html=1;" parent="1" vertex="1">
                    <mxGeometry x="90" y="400" width="40" height="40" as="geometry"/>
                </mxCell>
                <mxCell id="22" value="ENTP" style="rounded=1;whiteSpace=wrap;html=1;" parent="1" vertex="1">
                    <mxGeometry x="240" y="400" width="40" height="40" as="geometry"/>
                </mxCell>
                <mxCell id="27" value="INFP" style="rounded=1;whiteSpace=wrap;html=1;" parent="1" vertex="1">
                    <mxGeometry x="140" y="450" width="40" height="40" as="geometry"/>
                </mxCell>
                <mxCell id="28" value="ISTP" style="rounded=1;whiteSpace=wrap;html=1;" parent="1" vertex="1">
                    <mxGeometry x="90" y="550" width="40" height="40" as="geometry"/>
                </mxCell>
                <mxCell id="29" value="ISTJ" style="rounded=1;whiteSpace=wrap;html=1;" parent="1" vertex="1">
                    <mxGeometry x="90" y="500" width="40" height="40" as="geometry"/>
                </mxCell>
                <mxCell id="30" value="INFJ" style="rounded=1;whiteSpace=wrap;html=1;" parent="1" vertex="1">
                    <mxGeometry x="90" y="450" width="40" height="40" as="geometry"/>
                </mxCell>
                <mxCell id="34" value="ENFJ" style="rounded=1;whiteSpace=wrap;html=1;" parent="1" vertex="1">
                    <mxGeometry x="190" y="450" width="40" height="40" as="geometry"/>
                </mxCell>
                <mxCell id="35" value="ESFJ" style="rounded=1;whiteSpace=wrap;html=1;" parent="1" vertex="1">
                    <mxGeometry x="190" y="500" width="40" height="40" as="geometry"/>
                </mxCell>
                <mxCell id="36" value="ISFP" style="rounded=1;whiteSpace=wrap;html=1;" parent="1" vertex="1">
                    <mxGeometry x="140" y="550" width="40" height="40" as="geometry"/>
                </mxCell>
                <mxCell id="37" value="ISFJ" style="rounded=1;whiteSpace=wrap;html=1;" parent="1" vertex="1">
                    <mxGeometry x="140" y="500" width="40" height="40" as="geometry"/>
                </mxCell>
                <mxCell id="38" value="ENFP" style="rounded=1;whiteSpace=wrap;html=1;" parent="1" vertex="1">
                    <mxGeometry x="240" y="450" width="40" height="40" as="geometry"/>
                </mxCell>
                <mxCell id="39" value="ESTP" style="rounded=1;whiteSpace=wrap;html=1;" parent="1" vertex="1">
                    <mxGeometry x="190" y="550" width="40" height="40" as="geometry"/>
                </mxCell>
                <mxCell id="40" value="ESTJ" style="rounded=1;whiteSpace=wrap;html=1;" parent="1" vertex="1">
                    <mxGeometry x="240" y="500" width="40" height="40" as="geometry"/>
                </mxCell>
                <mxCell id="41" value="ESFP" style="rounded=1;whiteSpace=wrap;html=1;" parent="1" vertex="1">
                    <mxGeometry x="240" y="550" width="40" height="40" as="geometry"/>
                </mxCell>
                <mxCell id="42" value="MBTI名&lt;br&gt;&lt;br&gt;向いている仕事&lt;br&gt;&lt;br&gt;データ入力作業&lt;br&gt;レジュメ準備&lt;br&gt;etc...&lt;br&gt;&lt;br&gt;&lt;u&gt;MBTI一覧&lt;/u&gt;" style="rounded=0;whiteSpace=wrap;html=1;" parent="1" vertex="1">
                    <mxGeometry x="440" y="360" width="240" height="160" as="geometry"/>
                </mxCell>
                <mxCell id="47" value="" style="endArrow=classic;html=1;" parent="1" edge="1">
                    <mxGeometry relative="1" as="geometry">
                        <mxPoint x="290" y="119.5" as="sourcePoint"/>
                        <mxPoint x="430" y="120" as="targetPoint"/>
                    </mxGeometry>
                </mxCell>
                <mxCell id="48" value="「URL」をクリック" style="edgeLabel;resizable=0;html=1;align=center;verticalAlign=middle;" parent="47" connectable="0" vertex="1">
                    <mxGeometry relative="1" as="geometry">
                        <mxPoint y="-10" as="offset"/>
                    </mxGeometry>
                </mxCell>
                <mxCell id="49" value="" style="endArrow=classic;html=1;" parent="1" edge="1">
                    <mxGeometry relative="1" as="geometry">
                        <mxPoint x="430" y="460" as="sourcePoint"/>
                        <mxPoint x="300" y="460" as="targetPoint"/>
                        <Array as="points"/>
                    </mxGeometry>
                </mxCell>
                <mxCell id="50" value="「MBTI一覧」を&lt;br&gt;クリック" style="edgeLabel;resizable=0;html=1;align=center;verticalAlign=middle;" parent="49" connectable="0" vertex="1">
                    <mxGeometry relative="1" as="geometry">
                        <mxPoint x="-5" y="20" as="offset"/>
                    </mxGeometry>
                </mxCell>
                <mxCell id="54" value="&lt;u&gt;TOPへ&lt;/u&gt;" style="rounded=1;whiteSpace=wrap;html=1;" parent="1" vertex="1">
                    <mxGeometry x="230" y="370" width="50" height="20" as="geometry"/>
                </mxCell>
                <mxCell id="59" value="診断サイト" style="rounded=0;whiteSpace=wrap;html=1;" parent="1" vertex="1">
                    <mxGeometry x="440" y="80" width="160" height="80" as="geometry"/>
                </mxCell>
                <mxCell id="60" value="" style="endArrow=classic;html=1;" parent="1" edge="1">
                    <mxGeometry relative="1" as="geometry">
                        <mxPoint x="290" y="220" as="sourcePoint"/>
                        <mxPoint x="540" y="350" as="targetPoint"/>
                        <Array as="points">
                            <mxPoint x="540" y="220"/>
                        </Array>
                    </mxGeometry>
                </mxCell>
                <mxCell id="61" value="「確認」をクリック" style="edgeLabel;resizable=0;html=1;align=center;verticalAlign=middle;" parent="60" connectable="0" vertex="1">
                    <mxGeometry relative="1" as="geometry">
                        <mxPoint x="-120" y="-10" as="offset"/>
                    </mxGeometry>
                </mxCell>
                <mxCell id="62" value="" style="endArrow=classic;html=1;" parent="1" edge="1">
                    <mxGeometry relative="1" as="geometry">
                        <mxPoint x="179" y="350" as="sourcePoint"/>
                        <mxPoint x="178.82" y="240" as="targetPoint"/>
                    </mxGeometry>
                </mxCell>
                <mxCell id="63" value="「TOPへ」を&lt;br&gt;クリック" style="edgeLabel;resizable=0;html=1;align=center;verticalAlign=middle;" parent="62" connectable="0" vertex="1">
                    <mxGeometry relative="1" as="geometry">
                        <mxPoint x="40" as="offset"/>
                    </mxGeometry>
                </mxCell>
                <mxCell id="66" value="" style="endArrow=classic;html=1;" parent="1" edge="1">
                    <mxGeometry relative="1" as="geometry">
                        <mxPoint x="300" y="420" as="sourcePoint"/>
                        <mxPoint x="430" y="420" as="targetPoint"/>
                    </mxGeometry>
                </mxCell>
                <mxCell id="67" value="16種類のMBTI&lt;br&gt;それぞれクリック" style="edgeLabel;resizable=0;html=1;align=center;verticalAlign=middle;" parent="66" connectable="0" vertex="1">
                    <mxGeometry relative="1" as="geometry">
                        <mxPoint x="-5" y="-20" as="offset"/>
                    </mxGeometry>
                </mxCell>
                <mxCell id="68" value="TOP画面" style="text;strokeColor=none;align=center;fillColor=none;html=1;verticalAlign=middle;whiteSpace=wrap;rounded=0;" parent="1" vertex="1">
                    <mxGeometry x="150" y="50" width="60" height="30" as="geometry"/>
                </mxCell>
                <mxCell id="69" value="公式サイト" style="text;strokeColor=none;align=center;fillColor=none;html=1;verticalAlign=middle;whiteSpace=wrap;rounded=0;" parent="1" vertex="1">
                    <mxGeometry x="480" y="50" width="80" height="30" as="geometry"/>
                </mxCell>
                <mxCell id="70" value="結果画面" style="text;strokeColor=none;align=center;fillColor=none;html=1;verticalAlign=middle;whiteSpace=wrap;rounded=0;" parent="1" vertex="1">
                    <mxGeometry x="580" y="330" width="60" height="30" as="geometry"/>
                </mxCell>
                <mxCell id="71" value="一覧画面" style="text;strokeColor=none;align=center;fillColor=none;html=1;verticalAlign=middle;whiteSpace=wrap;rounded=0;" parent="1" vertex="1">
                    <mxGeometry x="80" y="330" width="60" height="30" as="geometry"/>
                </mxCell>
                <mxCell id="76" value="&lt;u&gt;TOPへ&lt;/u&gt;" style="rounded=1;whiteSpace=wrap;html=1;" parent="1" vertex="1">
                    <mxGeometry x="620" y="370" width="50" height="20" as="geometry"/>
                </mxCell>
            </root>
        </mxGraphModel>
    </diagram>
</mxfile>